<?xml version="1.0" standalone="no"?>
<!DOCTYPE svg PUBLIC "-//W3C//DTD SVG 20010904//EN"
 "http://www.w3.org/TR/2001/REC-SVG-20010904/DTD/svg10.dtd">
<svg version="1.0" xmlns="http://www.w3.org/2000/svg"
 width="400.000000pt" height="400.000000pt" viewBox="0 0 400.000000 400.000000"
 preserveAspectRatio="xMidYMid meet">
<metadata>
Created by potrace 1.14, written by Peter Selinger 2001-2017
</metadata>
<g transform="translate(0.000000,400.000000) scale(0.100000,-0.100000)"
fill="#000000" stroke="none">
<path d="M2535 3989 c-11 -6 -89 -79 -173 -163 -173 -172 -189 -199 -155 -276
16 -36 305 -317 339 -330 63 -24 89 -8 252 153 85 84 159 163 167 177 11 22
12 42 7 101 -3 22 -316 333 -344 341 -36 10 -71 8 -93 -3z"/>
<path d="M1824 3548 c-57 -27 -64 -127 -18 -278 20 -70 85 -210 96 -210 4 0 8
-6 8 -13 0 -28 120 -163 210 -235 25 -20 50 -41 55 -47 6 -5 42 -25 80 -44 39
-18 77 -36 85 -41 8 -4 47 -15 85 -26 93 -24 323 -25 445 -1 198 39 390 124
552 244 102 76 133 116 130 168 -2 34 -33 99 -65 138 -12 14 -32 39 -44 54
-97 126 -139 172 -172 188 -45 23 -78 15 -164 -42 -40 -26 -74 -50 -77 -54
-13 -15 -161 -108 -210 -131 -280 -132 -522 -85 -755 149 -26 26 -70 78 -96
114 -57 77 -92 93 -145 67z"/>
<path d="M1347 2994 c-1 -2 -23 -4 -47 -5 -25 -1 -49 -5 -55 -8 -5 -3 -16 -6
-25 -7 -55 -5 -107 -17 -117 -26 -7 -6 -13 -8 -13 -5 0 11 -173 -54 -261 -98
-78 -39 -218 -130 -244 -160 -59 -65 -51 -109 56 -288 110 -184 133 -215 167
-229 52 -19 95 -10 213 45 221 105 388 156 486 151 94 -5 194 -79 208 -156 8
-41 -64 -130 -130 -161 -100 -49 -154 -57 -310 -51 -71 3 -143 6 -160 6 -83 0
-129 -54 -121 -142 17 -181 74 -327 166 -421 50 -50 119 -97 160 -106 15 -4
62 -3 175 1 171 7 293 -110 300 -288 10 -249 -184 -395 -520 -391 -165 2 -259
24 -405 93 -72 34 -109 59 -155 106 -98 97 -150 207 -276 576 -34 101 -72 194
-85 209 -17 19 -31 25 -62 25 -76 -1 -100 -45 -96 -179 2 -91 14 -247 19 -255
2 -3 7 -33 10 -65 4 -33 11 -68 16 -77 6 -10 8 -18 6 -18 -2 0 7 -39 20 -87
13 -49 24 -94 25 -100 1 -7 5 -13 10 -13 4 0 8 -6 8 -14 0 -8 5 -27 12 -43 6
-15 12 -30 12 -33 3 -17 104 -204 118 -220 10 -11 18 -22 18 -26 0 -29 278
-324 306 -324 7 0 14 -4 16 -9 5 -13 105 -74 178 -108 72 -34 200 -72 270 -81
55 -7 270 -7 325 1 109 15 265 75 331 129 145 118 279 317 331 490 15 53 17
62 27 128 12 81 7 233 -10 310 -3 14 -8 36 -11 50 -7 36 -8 40 -23 90 -8 25
-14 47 -15 50 0 3 -7 22 -14 43 -7 21 -10 41 -7 44 3 3 56 7 118 8 62 1 133 8
157 14 39 11 114 54 162 93 15 12 97 119 126 164 7 10 38 55 68 99 30 44 60
88 67 98 95 140 165 215 227 244 82 39 157 32 228 -23 35 -27 79 -94 87 -134
3 -14 10 -45 17 -70 14 -59 19 -108 19 -205 -1 -113 -17 -208 -46 -264 -8 -14
-14 -30 -14 -35 0 -14 -59 -105 -94 -146 -84 -98 -224 -181 -350 -206 -37 -7
-121 -7 -156 1 -50 11 -119 48 -161 87 -38 35 -113 144 -125 181 -25 78 -151
74 -169 -6 -4 -18 -9 -39 -11 -47 -7 -25 -6 -203 0 -237 3 -18 8 -48 11 -65
30 -178 107 -333 219 -443 77 -74 191 -135 284 -152 52 -9 242 -10 242 -1 0 5
4 7 9 4 5 -3 40 3 79 13 39 10 73 17 75 15 2 -3 10 2 17 11 7 8 23 15 36 15
13 0 24 3 24 8 0 4 14 13 32 21 38 17 54 30 131 101 63 59 125 147 177 250 35
70 98 253 106 310 3 19 7 46 10 60 2 14 6 34 8 45 18 94 26 372 13 465 -6 45
-18 119 -24 145 -2 11 -6 27 -7 35 -21 129 -144 390 -226 481 -69 76 -146 149
-157 149 -7 0 -13 5 -13 10 0 6 -7 10 -15 10 -8 0 -15 4 -15 9 0 4 -33 22 -72
40 -81 35 -196 58 -273 55 -240 -10 -411 -87 -536 -241 -26 -32 -159 -252
-159 -263 0 -6 -4 -10 -9 -10 -5 0 -11 -8 -15 -17 -3 -10 -11 -27 -18 -38
-118 -182 -138 -210 -188 -266 -48 -54 -111 -62 -216 -28 l-65 21 51 50 c108
106 224 326 247 467 8 46 8 197 1 236 -15 76 -22 102 -35 122 -8 12 -14 24
-14 28 1 3 -11 29 -25 58 -84 166 -259 291 -442 313 -52 7 -220 12 -225 8z"/>
</g>
</svg>
